C:/Users/User/Desktop/exes/ffmpeg-5.0-essentials_build/ffmpeg-5.0-essentials_build/bin/ffmpeg.exe -hide_banner -y -y -r 24 -start_number 0 -start_number_range 1 -i E:/Javascript/Cara medical institute/image/Icons/frame%04d.png -crf 23 -preset medium -profile:v baseline -pix_fmt yuv420p E:/Javascript/Cara medical institute/image/Icons/Logopopup.mp4
=====================================================
Input #0, image2, from 'E:/Javascript/Cara medical institute/image/Icons/frame%04d.png':
  Duration: 00:00:00.36, start: 0.000000, bitrate: N/A
  Stream #0:0: Video: png, rgba(pc), 2048x2048 [SAR 3937:3937 DAR 1:1], 25 fps, 25 tbr, 25 tbn
Stream mapping:
  Stream #0:0 -> #0:0 (png (native) -> h264 (libx264))
Press [q] to stop, [?] for help
[libx264 @ 000002727aca0240] using SAR=1/1
[libx264 @ 000002727aca0240] using cpu capabilities: MMX2 SSE2Fast SSSE3 SSE4.2 AVX FMA3 BMI2 AVX2
[libx264 @ 000002727aca0240] profile Constrained Baseline, level 5.0, 4:2:0, 8-bit
[libx264 @ 000002727aca0240] 264 - core 164 r3081 19856cc - H.264/MPEG-4 AVC codec - Copyleft 2003-2021 - http://www.videolan.org/x264.html - options: cabac=0 ref=3 deblock=1:0:0 analyse=0x1:0x111 me=hex subme=7 psy=1 psy_rd=1.00:0.00 mixed_ref=1 me_range=16 chroma_me=1 trellis=1 8x8dct=0 cqm=0 deadzone=21,11 fast_pskip=1 chroma_qp_offset=-2 threads=12 lookahead_threads=2 sliced_threads=0 nr=0 decimate=1 interlaced=0 bluray_compat=0 constrained_intra=0 bframes=0 weightp=0 keyint=250 keyint_min=24 scenecut=40 intra_refresh=0 rc_lookahead=40 rc=crf mbtree=1 crf=23.0 qcomp=0.60 qpmin=0 qpmax=69 qpstep=4 ip_ratio=1.40 aq=1:1.00
Output #0, mp4, to 'E:/Javascript/Cara medical institute/image/Icons/Logopopup.mp4':
  Metadata:
    encoder         : Lavf59.16.100
  Stream #0:0: Video: h264 (avc1 / 0x31637661), yuv420p(tv, progressive), 2048x2048 [SAR 1:1 DAR 1:1], q=2-31, 24 fps, 12288 tbn
    Metadata:
      encoder         : Lavc59.18.100 libx264
    Side data:
      cpb: bitrate max/min/avg: 0/0/0 buffer size: 0 vbv_delay: N/A
frame=    1 fps=0.0 q=0.0 size=       0kB time=00:00:00.00 bitrate=N/A speed=   0x    frame=    9 fps=0.0 q=-1.0 Lsize=     173kB time=00:00:00.33 bitrate=4243.5kbits/s speed=0.801x    
video:172kB audio:0kB subtitle:0kB other streams:0kB global headers:0kB muxing overhead: 0.505777%
[libx264 @ 000002727aca0240] frame I:1     Avg QP:10.19  size: 20509
[libx264 @ 000002727aca0240] frame P:8     Avg QP:17.44  size: 19354
[libx264 @ 000002727aca0240] mb I  I16..4: 97.0%  0.0%  3.0%
[libx264 @ 000002727aca0240] mb P  I16..4:  5.7%  0.0%  3.7%  P16..4:  3.3%  1.4%  0.5%  0.0%  0.0%    skip:85.5%
[libx264 @ 000002727aca0240] coded y,uvDC,uvAC intra: 9.4% 21.8% 19.6% inter: 0.8% 1.5% 0.4%
[libx264 @ 000002727aca0240] i16 v,h,dc,p: 93%  6%  1%  0%
[libx264 @ 000002727aca0240] i4 v,h,dc,ddl,ddr,vr,hd,vl,hu: 35% 31% 29%  1%  1%  1%  1%  1%  1%
[libx264 @ 000002727aca0240] i8c dc,h,v,p: 82% 10%  8%  1%
[libx264 @ 000002727aca0240] ref P L0: 72.1% 20.2%  7.7%
[libx264 @ 000002727aca0240] kb/s:3740.54
